# xmcd
#
# Track frame offsets:
#	150
#	10098
#	22648
#	32251
#	48651
#	54812
#	68653
#	79185
#	95183
#	107672
#
# Disc length: 1585 seconds
#
# Revision: 1
# Processed by: cddbd v1.5.1PL0 Copyright (c) Steve Scherf et al.
# Submitted via: audiograbber 1.83.01
#
DISCID=6a062f0a
DTITLE=Mark Grothier - North Dakota Country
DYEAR=1900
DGENRE=Country
TTITLE0=North Dakota Country
TTITLE1=Blue Eyes Crying In The Rain
TTITLE2=The "This Town" Country Concerto In Eb
TTITLE3=Where The Buffalo Roam
TTITLE4=National Anthem
TTITLE5=The Waylon and Willie Machine
TTITLE6=Paradise
TTITLE7=Rose Colored Glasses
TTITLE8=It Keeps Right On A-Hurtin'
TTITLE9=It Was Just My Time (The Bill Fadell Song)
EXTD=
EXTT0=
EXTT1=
EXTT2=
EXTT3=
EXTT4=
EXTT5=
EXTT6=
EXTT7=
EXTT8=
EXTT9=
PLAYORDER=
